# xmcd
#
# Track frame offsets:
#	150
#	15931
#	35213
#	52818
#	68187
#	84474
#	102473
#	119134
#	139427
#	167321
#	184794
#	203061
#	219604
#
# Disc length: 3141 seconds
#
# Revision: 1
# Processed by: cddbd v1.5.2PL0 Copyright (c) Steve Scherf et al.
# Submitted via: audiograbber 1.83.01
#
DISCID=b90c430d
DTITLE=Leann Rimes - Twisted Angel
DYEAR=2002
DGENRE=New Country
TTITLE0=Life goes on
TTITLE1=Wound up
TTITLE2=The safest place
TTITLE3=Trouble with goodbye
TTITLE4=Damn
TTITLE5=Suddenly
TTITLE6=Tic Toc
TTITLE7=Sign of life
TTITLE8=Review my kisses
TTITLE9=No way out
TTITLE10=Love is an army
TTITLE11=You made me find myself
TTITLE12=Twisted Angel
EXTD=
EXTT0=
EXTT1=
EXTT2=
EXTT3=
EXTT4=
EXTT5=
EXTT6=
EXTT7=
EXTT8=
EXTT9=
EXTT10=
EXTT11=
EXTT12=
PLAYORDER=
